<mxfile host="app.diagrams.net" agent="Mozilla/5.0 (Macintosh; Intel Mac OS X 10_15_7) AppleWebKit/605.1.15 (KHTML, like Gecko) Version/18.4 Safari/605.1.15" version="26.2.14">
  <diagram name="PÃ¡gina-1" id="givj7YfM5evfJLxvOkS5">
    <mxGraphModel dx="1240" dy="702" grid="1" gridSize="10" guides="1" tooltips="1" connect="1" arrows="1" fold="1" page="1" pageScale="1" pageWidth="827" pageHeight="1169" math="1" shadow="0">
      <root>
        <mxCell id="0" />
        <mxCell id="1" parent="0" />
        <mxCell id="aHZ8nvqeSCr8hZxqncPx-23" value="" style="ellipse;whiteSpace=wrap;html=1;aspect=fixed;strokeColor=none;strokeWidth=3;" vertex="1" parent="1">
          <mxGeometry x="640" y="710" width="20" height="20" as="geometry" />
        </mxCell>
        <mxCell id="aHZ8nvqeSCr8hZxqncPx-4" style="edgeStyle=orthogonalEdgeStyle;rounded=0;orthogonalLoop=1;jettySize=auto;html=1;startArrow=classic;startFill=0;endArrow=none;strokeWidth=3;" edge="1" parent="1" source="aHZ8nvqeSCr8hZxqncPx-2">
          <mxGeometry relative="1" as="geometry">
            <mxPoint x="160" y="520" as="targetPoint" />
          </mxGeometry>
        </mxCell>
        <mxCell id="aHZ8nvqeSCr8hZxqncPx-5" style="edgeStyle=orthogonalEdgeStyle;rounded=0;orthogonalLoop=1;jettySize=auto;html=1;strokeWidth=3;" edge="1" parent="1" source="aHZ8nvqeSCr8hZxqncPx-2">
          <mxGeometry relative="1" as="geometry">
            <mxPoint x="160" y="200" as="targetPoint" />
          </mxGeometry>
        </mxCell>
        <mxCell id="aHZ8nvqeSCr8hZxqncPx-2" value="&lt;font style=&quot;font-size: 16px;&quot;&gt;Residual Block&lt;/font&gt;" style="shape=hexagon;perimeter=hexagonPerimeter2;whiteSpace=wrap;html=1;fixedSize=1;fillColor=#fff2cc;strokeColor=#d6b656;strokeWidth=3;" vertex="1" parent="1">
          <mxGeometry x="80" y="310" width="160" height="100" as="geometry" />
        </mxCell>
        <mxCell id="aHZ8nvqeSCr8hZxqncPx-3" value="" style="rounded=0;whiteSpace=wrap;html=1;fillColor=#fff2cc;strokeColor=#d6b656;strokeWidth=3;" vertex="1" parent="1">
          <mxGeometry x="430" y="32.5" width="360" height="655" as="geometry" />
        </mxCell>
        <mxCell id="aHZ8nvqeSCr8hZxqncPx-6" value="" style="shape=flexArrow;endArrow=classic;startArrow=classic;html=1;rounded=0;strokeWidth=3;fillColor=#dae8fc;strokeColor=#6c8ebf;" edge="1" parent="1">
          <mxGeometry width="100" height="100" relative="1" as="geometry">
            <mxPoint x="260" y="360" as="sourcePoint" />
            <mxPoint x="370" y="360" as="targetPoint" />
          </mxGeometry>
        </mxCell>
        <mxCell id="aHZ8nvqeSCr8hZxqncPx-7" value="&lt;font style=&quot;font-size: 18px;&quot;&gt;Internal structure&lt;/font&gt;" style="text;html=1;align=center;verticalAlign=middle;resizable=0;points=[];autosize=1;strokeColor=none;fillColor=none;strokeWidth=3;" vertex="1" parent="1">
          <mxGeometry x="240" y="310" width="160" height="30" as="geometry" />
        </mxCell>
        <mxCell id="aHZ8nvqeSCr8hZxqncPx-28" style="edgeStyle=orthogonalEdgeStyle;rounded=0;orthogonalLoop=1;jettySize=auto;html=1;strokeWidth=3;" edge="1" parent="1" source="aHZ8nvqeSCr8hZxqncPx-8">
          <mxGeometry relative="1" as="geometry">
            <mxPoint x="650" y="10" as="targetPoint" />
          </mxGeometry>
        </mxCell>
        <mxCell id="aHZ8nvqeSCr8hZxqncPx-8" value="Layer normalization" style="rounded=0;whiteSpace=wrap;html=1;fillColor=#e3c800;fontColor=#000000;strokeColor=#B09500;strokeWidth=3;" vertex="1" parent="1">
          <mxGeometry x="590" y="80" width="120" height="60" as="geometry" />
        </mxCell>
        <mxCell id="aHZ8nvqeSCr8hZxqncPx-18" style="edgeStyle=orthogonalEdgeStyle;rounded=0;orthogonalLoop=1;jettySize=auto;html=1;strokeWidth=3;" edge="1" parent="1" source="aHZ8nvqeSCr8hZxqncPx-9" target="aHZ8nvqeSCr8hZxqncPx-8">
          <mxGeometry relative="1" as="geometry" />
        </mxCell>
        <mxCell id="aHZ8nvqeSCr8hZxqncPx-9" value="&lt;b&gt;&lt;font style=&quot;font-size: 17px;&quot;&gt;$$+$$&lt;/font&gt;&lt;/b&gt;" style="ellipse;whiteSpace=wrap;html=1;aspect=fixed;fillColor=#60a917;fontColor=#ffffff;strokeColor=#2D7600;strokeWidth=3;" vertex="1" parent="1">
          <mxGeometry x="630" y="180" width="40" height="40" as="geometry" />
        </mxCell>
        <mxCell id="aHZ8nvqeSCr8hZxqncPx-17" style="edgeStyle=orthogonalEdgeStyle;rounded=0;orthogonalLoop=1;jettySize=auto;html=1;strokeWidth=3;" edge="1" parent="1" source="aHZ8nvqeSCr8hZxqncPx-11" target="aHZ8nvqeSCr8hZxqncPx-9">
          <mxGeometry relative="1" as="geometry" />
        </mxCell>
        <mxCell id="aHZ8nvqeSCr8hZxqncPx-11" value="Dropout" style="rounded=0;whiteSpace=wrap;html=1;fillColor=#e1d5e7;strokeColor=#9673a6;strokeWidth=3;" vertex="1" parent="1">
          <mxGeometry x="590" y="260" width="120" height="60" as="geometry" />
        </mxCell>
        <mxCell id="aHZ8nvqeSCr8hZxqncPx-16" style="edgeStyle=orthogonalEdgeStyle;rounded=0;orthogonalLoop=1;jettySize=auto;html=1;entryX=0.5;entryY=1;entryDx=0;entryDy=0;strokeWidth=3;" edge="1" parent="1" source="aHZ8nvqeSCr8hZxqncPx-12" target="aHZ8nvqeSCr8hZxqncPx-11">
          <mxGeometry relative="1" as="geometry" />
        </mxCell>
        <mxCell id="aHZ8nvqeSCr8hZxqncPx-12" value="Dense (linear)" style="rounded=0;whiteSpace=wrap;html=1;fillColor=#dae8fc;strokeColor=#6c8ebf;strokeWidth=3;" vertex="1" parent="1">
          <mxGeometry x="590" y="350" width="120" height="60" as="geometry" />
        </mxCell>
        <mxCell id="aHZ8nvqeSCr8hZxqncPx-20" style="edgeStyle=orthogonalEdgeStyle;rounded=0;orthogonalLoop=1;jettySize=auto;html=1;entryX=0;entryY=0.5;entryDx=0;entryDy=0;movable=1;resizable=1;rotatable=1;deletable=1;editable=1;locked=0;connectable=1;strokeWidth=3;" edge="1" parent="1" source="aHZ8nvqeSCr8hZxqncPx-13" target="aHZ8nvqeSCr8hZxqncPx-9">
          <mxGeometry relative="1" as="geometry">
            <Array as="points">
              <mxPoint x="510" y="200" />
              <mxPoint x="560" y="200" />
            </Array>
          </mxGeometry>
        </mxCell>
        <mxCell id="aHZ8nvqeSCr8hZxqncPx-27" style="edgeStyle=orthogonalEdgeStyle;rounded=0;orthogonalLoop=1;jettySize=auto;html=1;endArrow=none;startFill=1;startArrow=classic;movable=1;resizable=1;rotatable=1;deletable=1;editable=1;locked=0;connectable=1;strokeWidth=3;" edge="1" parent="1" source="aHZ8nvqeSCr8hZxqncPx-13">
          <mxGeometry relative="1" as="geometry">
            <mxPoint x="650" y="610" as="targetPoint" />
            <Array as="points">
              <mxPoint x="510" y="590" />
              <mxPoint x="650" y="590" />
            </Array>
          </mxGeometry>
        </mxCell>
        <mxCell id="aHZ8nvqeSCr8hZxqncPx-13" value="Dense (linear)" style="rounded=0;whiteSpace=wrap;html=1;fillColor=#dae8fc;strokeColor=#6c8ebf;strokeWidth=3;" vertex="1" parent="1">
          <mxGeometry x="450" y="350" width="120" height="60" as="geometry" />
        </mxCell>
        <mxCell id="aHZ8nvqeSCr8hZxqncPx-15" style="edgeStyle=orthogonalEdgeStyle;rounded=0;orthogonalLoop=1;jettySize=auto;html=1;exitX=0.5;exitY=0;exitDx=0;exitDy=0;entryX=0.5;entryY=1;entryDx=0;entryDy=0;movable=1;resizable=1;rotatable=1;deletable=1;editable=1;locked=0;connectable=1;strokeWidth=3;" edge="1" parent="1" source="aHZ8nvqeSCr8hZxqncPx-14" target="aHZ8nvqeSCr8hZxqncPx-12">
          <mxGeometry relative="1" as="geometry" />
        </mxCell>
        <mxCell id="aHZ8nvqeSCr8hZxqncPx-14" value="Dense (ReLU)" style="whiteSpace=wrap;html=1;aspect=fixed;fillColor=#d5e8d4;strokeColor=#82b366;strokeWidth=3;" vertex="1" parent="1">
          <mxGeometry x="610" y="460" width="80" height="80" as="geometry" />
        </mxCell>
        <mxCell id="aHZ8nvqeSCr8hZxqncPx-24" style="edgeStyle=orthogonalEdgeStyle;rounded=0;orthogonalLoop=1;jettySize=auto;html=1;entryX=0.5;entryY=1;entryDx=0;entryDy=0;movable=1;resizable=1;rotatable=1;deletable=1;editable=1;locked=0;connectable=1;strokeWidth=3;" edge="1" parent="1" target="aHZ8nvqeSCr8hZxqncPx-14">
          <mxGeometry relative="1" as="geometry">
            <mxPoint x="650" y="720" as="sourcePoint" />
            <Array as="points">
              <mxPoint x="650" y="540" />
              <mxPoint x="650" y="540" />
            </Array>
          </mxGeometry>
        </mxCell>
        <mxCell id="aHZ8nvqeSCr8hZxqncPx-29" value="Skip Connection" style="text;html=1;align=center;verticalAlign=middle;whiteSpace=wrap;rounded=0;strokeWidth=3;" vertex="1" parent="1">
          <mxGeometry x="520" y="170" width="60" height="30" as="geometry" />
        </mxCell>
      </root>
    </mxGraphModel>
  </diagram>
</mxfile>
